# Blender 4.3.0
# www.blender.org
mtllib goal.mtl
o Cylinder
v 0.000000 -2.500000 -1.750000
v 0.000000 2.500000 -1.750000
v 0.341408 -2.500000 -1.716374
v 0.341408 2.500000 -1.716374
v 0.669696 -2.500000 -1.616789
v 0.669696 2.500000 -1.616789
v 0.972248 -2.500000 -1.455072
v 0.972248 2.500000 -1.455072
v 1.237437 -2.500000 -1.237437
v 1.237437 2.500000 -1.237437
v 1.455072 -2.500000 -0.972248
v 1.455072 2.500000 -0.972248
v 1.616789 -2.500000 -0.669696
v 1.616789 2.500000 -0.669696
v 1.716374 -2.500000 -0.341408
v 1.716374 2.500000 -0.341408
v 1.750000 -2.500000 0.000000
v 1.750000 2.500000 0.000000
v 1.716374 -2.500000 0.341408
v 1.716374 2.500000 0.341408
v 1.616789 -2.500000 0.669696
v 1.616789 2.500000 0.669696
v 1.455072 -2.500000 0.972248
v 1.455072 2.500000 0.972248
v 1.237437 -2.500000 1.237437
v 1.237437 2.500000 1.237437
v 0.972248 -2.500000 1.455072
v 0.972248 2.500000 1.455072
v 0.669696 -2.500000 1.616789
v 0.669696 2.500000 1.616789
v 0.341408 -2.500000 1.716374
v 0.341408 2.500000 1.716374
v 0.000000 -2.500000 1.750000
v 0.000000 2.500000 1.750000
v -0.341408 -2.500000 1.716374
v -0.341408 2.500000 1.716374
v -0.669696 -2.500000 1.616789
v -0.669696 2.500000 1.616789
v -0.972248 -2.500000 1.455072
v -0.972248 2.500000 1.455072
v -1.237437 -2.500000 1.237437
v -1.237437 2.500000 1.237437
v -1.455072 -2.500000 0.972248
v -1.455072 2.500000 0.972248
v -1.616789 -2.500000 0.669696
v -1.616789 2.500000 0.669696
v -1.716374 -2.500000 0.341408
v -1.716374 2.500000 0.341408
v -1.750000 -2.500000 0.000000
v -1.750000 2.500000 0.000000
v -1.716374 -2.500000 -0.341408
v -1.716374 2.500000 -0.341408
v -1.616789 -2.500000 -0.669696
v -1.616789 2.500000 -0.669696
v -1.455072 -2.500000 -0.972248
v -1.455072 2.500000 -0.972248
v -1.237437 -2.500000 -1.237437
v -1.237437 2.500000 -1.237437
v -0.972248 -2.500000 -1.455072
v -0.972248 2.500000 -1.455072
v -0.669696 -2.500000 -1.616789
v -0.669696 2.500000 -1.616789
v -0.341408 -2.500000 -1.716374
v -0.341408 2.500000 -1.716374
v 0.000000 -2.500000 -1.750000
v -0.341408 -2.500000 -1.716374
v -0.669696 -2.500000 -1.616789
v -0.972248 -2.500000 -1.455072
v -1.237437 -2.500000 -1.237437
v -1.455072 -2.500000 -0.972248
v -1.616789 -2.500000 -0.669696
v -1.716374 -2.500000 -0.341408
v -1.750000 -2.500000 0.000000
v -1.716374 -2.500000 0.341408
v -1.616789 -2.500000 0.669696
v -1.455072 -2.500000 0.972248
v -1.237437 -2.500000 1.237437
v -0.972248 -2.500000 1.455072
v -0.669696 -2.500000 1.616789
v -0.341408 -2.500000 1.716374
v 0.000000 -2.500000 1.750000
v 0.341408 -2.500000 1.716374
v 0.669696 -2.500000 1.616789
v 0.972248 -2.500000 1.455072
v 1.237437 -2.500000 1.237437
v 1.455072 -2.500000 0.972248
v 1.616789 -2.500000 0.669696
v 1.716374 -2.500000 0.341408
v 1.750000 -2.500000 0.000000
v 1.716374 -2.500000 -0.341408
v 1.616789 -2.500000 -0.669696
v 1.455072 -2.500000 -0.972248
v 1.237437 -2.500000 -1.237437
v 0.972248 -2.500000 -1.455072
v 0.669696 -2.500000 -1.616789
v 0.341408 -2.500000 -1.716374
v 0.445913 -2.500000 -2.241758
v -0.000000 -2.500000 -2.285676
v 0.000000 2.500000 -2.285676
v 0.445914 2.500000 -2.241758
v 0.874690 -2.500000 -2.111690
v 0.874691 2.500000 -2.111689
v 1.269853 -2.500000 -1.900470
v 1.269854 2.500000 -1.900470
v 1.616217 -2.500000 -1.616217
v 1.616217 2.500000 -1.616217
v 1.900470 -2.500000 -1.269854
v 1.900470 2.500000 -1.269853
v 2.111689 -2.500000 -0.874691
v 2.111690 2.500000 -0.874690
v 2.241758 -2.500000 -0.445914
v 2.241758 2.500000 -0.445913
v 2.285676 -2.500000 -0.000000
v 2.285676 2.500000 0.000000
v 2.241758 -2.500000 0.445913
v 2.241758 2.500000 0.445914
v 2.111690 -2.500000 0.874690
v 2.111689 2.500000 0.874691
v 1.900470 -2.500000 1.269853
v 1.900470 2.500000 1.269854
v 1.616217 -2.500000 1.616217
v 1.616217 2.500000 1.616217
v 1.269854 -2.500000 1.900470
v 1.269853 2.500000 1.900470
v 0.874691 -2.500000 2.111689
v 0.874690 2.500000 2.111690
v 0.445914 -2.500000 2.241758
v 0.445913 2.500000 2.241758
v 0.000000 -2.500000 2.285676
v -0.000000 2.500000 2.285676
v -0.445913 -2.500000 2.241758
v -0.445914 2.500000 2.241758
v -0.874690 -2.500000 2.111690
v -0.874691 2.500000 2.111689
v -1.269853 -2.500000 1.900470
v -1.269854 2.500000 1.900470
v -1.616217 -2.500000 1.616217
v -1.616217 2.500000 1.616217
v -1.900470 -2.500000 1.269854
v -1.900470 2.500000 1.269853
v -2.111689 -2.500000 0.874691
v -2.111690 2.500000 0.874690
v -2.241758 -2.500000 0.445914
v -2.241758 2.500000 0.445913
v -2.285676 -2.500000 0.000000
v -2.285676 2.500000 -0.000000
v -2.241758 -2.500000 -0.445913
v -2.241758 2.500000 -0.445914
v -2.111690 -2.500000 -0.874690
v -2.111689 2.500000 -0.874691
v -1.900470 -2.500000 -1.269853
v -1.900470 2.500000 -1.269854
v -1.616217 -2.500000 -1.616217
v -1.616217 2.500000 -1.616217
v -1.269854 -2.500000 -1.900470
v -1.269853 2.500000 -1.900470
v -0.874691 -2.500000 -2.111689
v -0.874690 2.500000 -2.111690
v -0.445914 -2.500000 -2.241758
v -0.445913 2.500000 -2.241758
v -0.341408 -1.734748 -1.716374
v 0.000000 -1.734748 -1.750000
v -0.669696 -1.734748 -1.616789
v -0.972248 -1.734748 -1.455072
v -1.237437 -1.734748 -1.237437
v -1.455072 -1.734748 -0.972248
v -1.616789 -1.734748 -0.669696
v -1.716374 -1.734748 -0.341408
v -1.750000 -1.734748 0.000000
v -1.716374 -1.734748 0.341408
v -1.616789 -1.734748 0.669696
v -1.455072 -1.734748 0.972248
v -1.237437 -1.734748 1.237437
v -0.972248 -1.734748 1.455072
v -0.669696 -1.734748 1.616789
v -0.341408 -1.734748 1.716374
v 0.000000 -1.734748 1.750000
v 0.341408 -1.734748 1.716374
v 0.669696 -1.734748 1.616789
v 0.972248 -1.734748 1.455072
v 1.237437 -1.734748 1.237437
v 1.455072 -1.734748 0.972248
v 1.616789 -1.734748 0.669696
v 1.716374 -1.734748 0.341408
v 1.750000 -1.734748 0.000000
v 1.716374 -1.734748 -0.341408
v 1.616789 -1.734748 -0.669696
v 1.455072 -1.734748 -0.972248
v 1.237437 -1.734748 -1.237437
v 0.972248 -1.734748 -1.455072
v 0.669696 -1.734748 -1.616789
v 0.341408 -1.734748 -1.716374
vn -0.0980 -0.0000 0.9952
vn -0.2903 -0.0000 0.9569
vn -0.4714 -0.0000 0.8819
vn -0.6344 -0.0000 0.7730
vn -0.7730 -0.0000 0.6344
vn -0.8819 -0.0000 0.4714
vn -0.9569 -0.0000 0.2903
vn -0.9952 -0.0000 0.0980
vn -0.9952 -0.0000 -0.0980
vn -0.9569 -0.0000 -0.2903
vn -0.8819 -0.0000 -0.4714
vn -0.7730 -0.0000 -0.6344
vn -0.6344 -0.0000 -0.7730
vn -0.4714 -0.0000 -0.8819
vn -0.2903 -0.0000 -0.9569
vn -0.0980 -0.0000 -0.9952
vn 0.0980 -0.0000 -0.9952
vn 0.2903 -0.0000 -0.9569
vn 0.4714 -0.0000 -0.8819
vn 0.6344 -0.0000 -0.7730
vn 0.7730 -0.0000 -0.6344
vn 0.8819 -0.0000 -0.4714
vn 0.9569 -0.0000 -0.2903
vn 0.9952 -0.0000 -0.0980
vn 0.9952 -0.0000 0.0980
vn 0.9569 -0.0000 0.2903
vn 0.8819 -0.0000 0.4714
vn 0.7730 -0.0000 0.6344
vn 0.6344 -0.0000 0.7730
vn 0.4714 -0.0000 0.8819
vn 0.2903 -0.0000 0.9569
vn 0.0980 -0.0000 0.9952
vn -0.0000 -1.0000 -0.0000
vn -0.0000 1.0000 -0.0000
vt 1.000000 1.000000
vt 1.000000 0.000000
vt 0.968750 0.000000
vt 0.968750 1.000000
vt 0.937500 0.000000
vt 0.937500 1.000000
vt 0.906250 0.000000
vt 0.906250 1.000000
vt 0.875000 0.000000
vt 0.875000 1.000000
vt 0.843750 0.000000
vt 0.843750 1.000000
vt 0.812500 0.000000
vt 0.812500 1.000000
vt 0.781250 0.000000
vt 0.781250 1.000000
vt 0.750000 0.000000
vt 0.750000 1.000000
vt 0.718750 0.000000
vt 0.718750 1.000000
vt 0.687500 0.000000
vt 0.687500 1.000000
vt 0.656250 0.000000
vt 0.656250 1.000000
vt 0.625000 0.000000
vt 0.625000 1.000000
vt 0.593750 0.000000
vt 0.593750 1.000000
vt 0.562500 0.000000
vt 0.562500 1.000000
vt 0.531250 0.000000
vt 0.531250 1.000000
vt 0.500000 0.000000
vt 0.500000 1.000000
vt 0.468750 0.000000
vt 0.468750 1.000000
vt 0.437500 0.000000
vt 0.437500 1.000000
vt 0.406250 0.000000
vt 0.406250 1.000000
vt 0.375000 0.000000
vt 0.375000 1.000000
vt 0.343750 0.000000
vt 0.343750 1.000000
vt 0.312500 0.000000
vt 0.312500 1.000000
vt 0.281250 0.000000
vt 0.281250 1.000000
vt 0.250000 0.000000
vt 0.250000 1.000000
vt 0.218750 0.000000
vt 0.218750 1.000000
vt 0.187500 0.000000
vt 0.187500 1.000000
vt 0.156250 0.000000
vt 0.156250 1.000000
vt 0.125000 0.000000
vt 0.125000 1.000000
vt 0.093750 0.000000
vt 0.093750 1.000000
vt 0.062500 0.000000
vt 0.062500 1.000000
vt 0.031250 0.000000
vt 0.031250 1.000000
vt 0.000000 0.000000
vt 0.402455 0.009607
vt 0.597545 0.990393
vt 0.990393 0.402455
vt 0.000000 1.000000
vt 0.402455 0.990393
vt 0.222215 0.915735
vt 0.308658 0.961940
vt 0.084265 0.777785
vt 0.146447 0.853553
vt 0.009607 0.597545
vt 0.038060 0.691342
vt 0.009607 0.402455
vt 0.000000 0.500000
vt 0.084265 0.222215
vt 0.038060 0.308658
vt 0.222215 0.084265
vt 0.146447 0.146447
vt 0.308658 0.038060
vt 0.597545 0.009607
vt 0.777785 0.084265
vt 0.691342 0.038060
vt 0.915735 0.222215
vt 0.853553 0.146447
vt 0.961940 0.308658
vt 0.990393 0.597545
vt 1.000000 0.500000
vt 0.915735 0.777785
vt 0.961940 0.691342
vt 0.777785 0.915735
vt 0.853553 0.853553
vt 0.691342 0.961940
s 0
f 2/1/1 1/2/1 3/3/1
f 4/4/2 3/3/2 5/5/2
f 6/6/3 5/5/3 7/7/3
f 8/8/4 7/7/4 9/9/4
f 10/10/5 9/9/5 11/11/5
f 12/12/6 11/11/6 13/13/6
f 14/14/7 13/13/7 15/15/7
f 16/16/8 15/15/8 17/17/8
f 18/18/9 17/17/9 19/19/9
f 20/20/10 19/19/10 21/21/10
f 22/22/11 21/21/11 23/23/11
f 24/24/12 23/23/12 25/25/12
f 26/26/13 25/25/13 27/27/13
f 28/28/14 27/27/14 29/29/14
f 30/30/15 29/29/15 31/31/15
f 32/32/16 31/31/16 33/33/16
f 34/34/17 33/33/17 35/35/17
f 36/36/18 35/35/18 37/37/18
f 38/38/19 37/37/19 39/39/19
f 40/40/20 39/39/20 41/41/20
f 42/42/21 41/41/21 43/43/21
f 44/44/22 43/43/22 45/45/22
f 46/46/23 45/45/23 47/47/23
f 48/48/24 47/47/24 49/49/24
f 50/50/25 49/49/25 51/51/25
f 52/52/26 51/51/26 53/53/26
f 54/54/27 53/53/27 55/55/27
f 56/56/28 55/55/28 57/57/28
f 58/58/29 57/57/29 59/59/29
f 60/60/30 59/59/30 61/61/30
f 62/62/31 61/61/31 63/63/31
f 64/64/32 63/63/32 1/65/32
f 80/66/33 96/67/33 88/68/33
f 2/1/1 3/3/1 4/4/1
f 4/4/2 5/5/2 6/6/2
f 6/6/3 7/7/3 8/8/3
f 8/8/4 9/9/4 10/10/4
f 10/10/5 11/11/5 12/12/5
f 12/12/6 13/13/6 14/14/6
f 14/14/7 15/15/7 16/16/7
f 16/16/8 17/17/8 18/18/8
f 18/18/9 19/19/9 20/20/9
f 20/20/10 21/21/10 22/22/10
f 22/22/11 23/23/11 24/24/11
f 24/24/12 25/25/12 26/26/12
f 26/26/13 27/27/13 28/28/13
f 28/28/14 29/29/14 30/30/14
f 30/30/15 31/31/15 32/32/15
f 32/32/16 33/33/16 34/34/16
f 34/34/17 35/35/17 36/36/17
f 36/36/18 37/37/18 38/38/18
f 38/38/19 39/39/19 40/40/19
f 40/40/20 41/41/20 42/42/20
f 42/42/21 43/43/21 44/44/21
f 44/44/22 45/45/22 46/46/22
f 46/46/23 47/47/23 48/48/23
f 48/48/24 49/49/24 50/50/24
f 50/50/25 51/51/25 52/52/25
f 52/52/26 53/53/26 54/54/26
f 54/54/27 55/55/27 56/56/27
f 56/56/28 57/57/28 58/58/28
f 58/58/29 59/59/29 60/60/29
f 60/60/30 61/61/30 62/62/30
f 62/62/31 63/63/31 64/64/31
f 64/64/32 1/65/32 2/69/32
f 96/67/33 66/70/33 65/34/33
f 66/70/33 68/71/33 67/72/33
f 68/71/33 70/73/33 69/74/33
f 70/73/33 72/75/33 71/76/33
f 72/75/33 74/77/33 73/78/33
f 74/77/33 76/79/33 75/80/33
f 76/79/33 78/81/33 77/82/33
f 78/81/33 80/66/33 79/83/33
f 80/66/33 82/84/33 81/33/33
f 82/84/33 84/85/33 83/86/33
f 84/85/33 86/87/33 85/88/33
f 86/87/33 88/68/33 87/89/33
f 88/68/33 90/90/33 89/91/33
f 90/90/33 92/92/33 91/93/33
f 92/92/33 94/94/33 93/95/33
f 94/94/33 96/67/33 95/96/33
f 96/67/33 72/75/33 66/70/33
f 66/70/33 72/75/33 68/71/33
f 68/71/33 72/75/33 70/73/33
f 72/75/33 80/66/33 74/77/33
f 74/77/33 80/66/33 76/79/33
f 76/79/33 80/66/33 78/81/33
f 80/66/33 88/68/33 82/84/33
f 82/84/33 88/68/33 84/85/33
f 84/85/33 88/68/33 86/87/33
f 88/68/33 96/67/33 90/90/33
f 90/90/33 96/67/33 92/92/33
f 92/92/33 96/67/33 94/94/33
f 96/67/33 80/66/33 72/75/33
f 99/1/17 97/3/17 98/2/17
f 100/4/18 101/5/18 97/3/18
f 102/6/19 103/7/19 101/5/19
f 104/8/20 105/9/20 103/7/20
f 106/10/21 107/11/21 105/9/21
f 108/12/22 109/13/22 107/11/22
f 110/14/23 111/15/23 109/13/23
f 112/16/24 113/17/24 111/15/24
f 114/18/25 115/19/25 113/17/25
f 116/20/26 117/21/26 115/19/26
f 118/22/27 119/23/27 117/21/27
f 120/24/28 121/25/28 119/23/28
f 122/26/29 123/27/29 121/25/29
f 124/28/30 125/29/30 123/27/30
f 126/30/31 127/31/31 125/29/31
f 128/32/32 129/33/32 127/31/32
f 130/34/1 131/35/1 129/33/1
f 132/36/2 133/37/2 131/35/2
f 134/38/3 135/39/3 133/37/3
f 136/40/4 137/41/4 135/39/4
f 138/42/5 139/43/5 137/41/5
f 140/44/6 141/45/6 139/43/6
f 142/46/7 143/47/7 141/45/7
f 144/48/8 145/49/8 143/47/8
f 146/50/9 147/51/9 145/49/9
f 148/52/10 149/53/10 147/51/10
f 150/54/11 151/55/11 149/53/11
f 152/56/12 153/57/12 151/55/12
f 154/58/13 155/59/13 153/57/13
f 156/60/14 157/61/14 155/59/14
f 158/62/15 159/63/15 157/61/15
f 160/64/16 98/65/16 159/63/16
f 176/66/34 184/68/34 192/67/34
f 99/1/17 100/4/17 97/3/17
f 100/4/18 102/6/18 101/5/18
f 102/6/19 104/8/19 103/7/19
f 104/8/20 106/10/20 105/9/20
f 106/10/21 108/12/21 107/11/21
f 108/12/22 110/14/22 109/13/22
f 110/14/23 112/16/23 111/15/23
f 112/16/24 114/18/24 113/17/24
f 114/18/25 116/20/25 115/19/25
f 116/20/26 118/22/26 117/21/26
f 118/22/27 120/24/27 119/23/27
f 120/24/28 122/26/28 121/25/28
f 122/26/29 124/28/29 123/27/29
f 124/28/30 126/30/30 125/29/30
f 126/30/31 128/32/31 127/31/31
f 128/32/32 130/34/32 129/33/32
f 130/34/1 132/36/1 131/35/1
f 132/36/2 134/38/2 133/37/2
f 134/38/3 136/40/3 135/39/3
f 136/40/4 138/42/4 137/41/4
f 138/42/5 140/44/5 139/43/5
f 140/44/6 142/46/6 141/45/6
f 142/46/7 144/48/7 143/47/7
f 144/48/8 146/50/8 145/49/8
f 146/50/9 148/52/9 147/51/9
f 148/52/10 150/54/10 149/53/10
f 150/54/11 152/56/11 151/55/11
f 152/56/12 154/58/12 153/57/12
f 154/58/13 156/60/13 155/59/13
f 156/60/14 158/62/14 157/61/14
f 158/62/15 160/64/15 159/63/15
f 160/64/16 99/69/16 98/65/16
f 192/67/34 162/34/34 161/70/34
f 161/70/34 163/72/34 164/71/34
f 164/71/34 165/74/34 166/73/34
f 166/73/34 167/76/34 168/75/34
f 168/75/34 169/78/34 170/77/34
f 170/77/34 171/80/34 172/79/34
f 172/79/34 173/82/34 174/81/34
f 174/81/34 175/83/34 176/66/34
f 176/66/34 177/33/34 178/84/34
f 178/84/34 179/86/34 180/85/34
f 180/85/34 181/88/34 182/87/34
f 182/87/34 183/89/34 184/68/34
f 184/68/34 185/91/34 186/90/34
f 186/90/34 187/93/34 188/92/34
f 188/92/34 189/95/34 190/94/34
f 190/94/34 191/96/34 192/67/34
f 192/67/34 161/70/34 168/75/34
f 161/70/34 164/71/34 168/75/34
f 164/71/34 166/73/34 168/75/34
f 168/75/34 170/77/34 176/66/34
f 170/77/34 172/79/34 176/66/34
f 172/79/34 174/81/34 176/66/34
f 176/66/34 178/84/34 184/68/34
f 178/84/34 180/85/34 184/68/34
f 180/85/34 182/87/34 184/68/34
f 184/68/34 186/90/34 192/67/34
f 186/90/34 188/92/34 192/67/34
f 188/92/34 190/94/34 192/67/34
f 192/67/34 168/75/34 176/66/34
f 61/61/33 159/63/33 63/63/33
f 46/46/34 140/44/34 44/44/34
f 9/9/33 107/11/33 11/11/33
f 88/68/26 183/89/26 87/89/26
f 64/64/34 158/62/34 62/62/34
f 27/27/33 125/29/33 29/29/33
f 12/12/34 106/10/34 10/10/34
f 89/91/25 184/68/25 88/68/25
f 45/45/33 143/47/33 47/47/33
f 30/30/34 124/28/34 28/28/34
f 90/90/24 185/91/24 89/91/24
f 63/63/33 98/65/33 1/65/33
f 48/48/34 142/46/34 46/46/34
f 11/11/33 109/13/33 13/13/33
f 91/93/23 186/90/23 90/90/23
f 2/69/34 160/64/34 64/64/34
f 29/29/33 127/31/33 31/31/33
f 14/14/34 108/12/34 12/12/34
f 92/92/22 187/93/22 91/93/22
f 66/70/16 162/34/16 65/34/16
f 47/47/33 145/49/33 49/49/33
f 32/32/34 126/30/34 30/30/34
f 93/95/21 188/92/21 92/92/21
f 67/72/15 161/70/15 66/70/15
f 50/50/34 144/48/34 48/48/34
f 13/13/33 111/15/33 15/15/33
f 94/94/20 189/95/20 93/95/20
f 68/71/14 163/72/14 67/72/14
f 31/31/33 129/33/33 33/33/33
f 16/16/34 110/14/34 14/14/34
f 95/96/19 190/94/19 94/94/19
f 69/74/13 164/71/13 68/71/13
f 49/49/33 147/51/33 51/51/33
f 34/34/34 128/32/34 32/32/34
f 96/67/18 191/96/18 95/96/18
f 70/73/12 165/74/12 69/74/12
f 52/52/34 146/50/34 50/50/34
f 15/15/33 113/17/33 17/17/33
f 65/34/17 192/67/17 96/67/17
f 71/76/11 166/73/11 70/73/11
f 33/33/33 131/35/33 35/35/33
f 18/18/34 112/16/34 16/16/34
f 72/75/10 167/76/10 71/76/10
f 51/51/33 149/53/33 53/53/33
f 36/36/34 130/34/34 34/34/34
f 73/78/9 168/75/9 72/75/9
f 54/54/34 148/52/34 52/52/34
f 17/17/33 115/19/33 19/19/33
f 74/77/8 169/78/8 73/78/8
f 35/35/33 133/37/33 37/37/33
f 20/20/34 114/18/34 18/18/34
f 1/2/33 97/3/33 3/3/33
f 75/80/7 170/77/7 74/77/7
f 53/53/33 151/55/33 55/55/33
f 38/38/34 132/36/34 36/36/34
f 76/79/6 171/80/6 75/80/6
f 56/56/34 150/54/34 54/54/34
f 19/19/33 117/21/33 21/21/33
f 4/4/34 99/1/34 2/1/34
f 77/82/5 172/79/5 76/79/5
f 37/37/33 135/39/33 39/39/33
f 22/22/34 116/20/34 20/20/34
f 78/81/4 173/82/4 77/82/4
f 55/55/33 153/57/33 57/57/33
f 40/40/34 134/38/34 38/38/34
f 3/3/33 101/5/33 5/5/33
f 79/83/3 174/81/3 78/81/3
f 58/58/34 152/56/34 56/56/34
f 21/21/33 119/23/33 23/23/33
f 6/6/34 100/4/34 4/4/34
f 80/66/2 175/83/2 79/83/2
f 39/39/33 137/41/33 41/41/33
f 24/24/34 118/22/34 22/22/34
f 81/33/1 176/66/1 80/66/1
f 57/57/33 155/59/33 59/59/33
f 42/42/34 136/40/34 40/40/34
f 5/5/33 103/7/33 7/7/33
f 82/84/32 177/33/32 81/33/32
f 60/60/34 154/58/34 58/58/34
f 23/23/33 121/25/33 25/25/33
f 8/8/34 102/6/34 6/6/34
f 83/86/31 178/84/31 82/84/31
f 41/41/33 139/43/33 43/43/33
f 26/26/34 120/24/34 24/24/34
f 84/85/30 179/86/30 83/86/30
f 59/59/33 157/61/33 61/61/33
f 44/44/34 138/42/34 42/42/34
f 7/7/33 105/9/33 9/9/33
f 85/88/29 180/85/29 84/85/29
f 62/62/34 156/60/34 60/60/34
f 25/25/33 123/27/33 27/27/33
f 10/10/34 104/8/34 8/8/34
f 86/87/28 181/88/28 85/88/28
f 43/43/33 141/45/33 45/45/33
f 28/28/34 122/26/34 26/26/34
f 87/89/27 182/87/27 86/87/27
f 46/46/34 142/46/34 140/44/34
f 64/64/34 160/64/34 158/62/34
f 12/12/34 108/12/34 106/10/34
f 30/30/34 126/30/34 124/28/34
f 48/48/34 144/48/34 142/46/34
f 2/69/34 99/69/34 160/64/34
f 14/14/34 110/14/34 108/12/34
f 32/32/34 128/32/34 126/30/34
f 50/50/34 146/50/34 144/48/34
f 16/16/34 112/16/34 110/14/34
f 34/34/34 130/34/34 128/32/34
f 52/52/34 148/52/34 146/50/34
f 18/18/34 114/18/34 112/16/34
f 36/36/34 132/36/34 130/34/34
f 54/54/34 150/54/34 148/52/34
f 20/20/34 116/20/34 114/18/34
f 38/38/34 134/38/34 132/36/34
f 56/56/34 152/56/34 150/54/34
f 4/4/34 100/4/34 99/1/34
f 22/22/34 118/22/34 116/20/34
f 40/40/34 136/40/34 134/38/34
f 58/58/34 154/58/34 152/56/34
f 6/6/34 102/6/34 100/4/34
f 24/24/34 120/24/34 118/22/34
f 42/42/34 138/42/34 136/40/34
f 60/60/34 156/60/34 154/58/34
f 8/8/34 104/8/34 102/6/34
f 26/26/34 122/26/34 120/24/34
f 44/44/34 140/44/34 138/42/34
f 62/62/34 158/62/34 156/60/34
f 10/10/34 106/10/34 104/8/34
f 28/28/34 124/28/34 122/26/34
f 61/61/33 157/61/33 159/63/33
f 9/9/33 105/9/33 107/11/33
f 27/27/33 123/27/33 125/29/33
f 45/45/33 141/45/33 143/47/33
f 63/63/33 159/63/33 98/65/33
f 11/11/33 107/11/33 109/13/33
f 29/29/33 125/29/33 127/31/33
f 47/47/33 143/47/33 145/49/33
f 13/13/33 109/13/33 111/15/33
f 31/31/33 127/31/33 129/33/33
f 49/49/33 145/49/33 147/51/33
f 15/15/33 111/15/33 113/17/33
f 33/33/33 129/33/33 131/35/33
f 51/51/33 147/51/33 149/53/33
f 17/17/33 113/17/33 115/19/33
f 35/35/33 131/35/33 133/37/33
f 1/2/33 98/2/33 97/3/33
f 75/80/7 171/80/7 170/77/7
f 53/53/33 149/53/33 151/55/33
f 19/19/33 115/19/33 117/21/33
f 37/37/33 133/37/33 135/39/33
f 55/55/33 151/55/33 153/57/33
f 3/3/33 97/3/33 101/5/33
f 21/21/33 117/21/33 119/23/33
f 39/39/33 135/39/33 137/41/33
f 57/57/33 153/57/33 155/59/33
f 5/5/33 101/5/33 103/7/33
f 23/23/33 119/23/33 121/25/33
f 41/41/33 137/41/33 139/43/33
f 59/59/33 155/59/33 157/61/33
f 7/7/33 103/7/33 105/9/33
f 25/25/33 121/25/33 123/27/33
f 43/43/33 139/43/33 141/45/33
f 88/68/26 184/68/26 183/89/26
f 89/91/25 185/91/25 184/68/25
f 90/90/24 186/90/24 185/91/24
f 91/93/23 187/93/23 186/90/23
f 92/92/22 188/92/22 187/93/22
f 66/70/16 161/70/16 162/34/16
f 93/95/21 189/95/21 188/92/21
f 67/72/15 163/72/15 161/70/15
f 94/94/20 190/94/20 189/95/20
f 68/71/14 164/71/14 163/72/14
f 95/96/19 191/96/19 190/94/19
f 69/74/13 165/74/13 164/71/13
f 96/67/18 192/67/18 191/96/18
f 70/73/12 166/73/12 165/74/12
f 65/34/17 162/34/17 192/67/17
f 71/76/11 167/76/11 166/73/11
f 72/75/10 168/75/10 167/76/10
f 73/78/9 169/78/9 168/75/9
f 74/77/8 170/77/8 169/78/8
f 76/79/6 172/79/6 171/80/6
f 77/82/5 173/82/5 172/79/5
f 78/81/4 174/81/4 173/82/4
f 79/83/3 175/83/3 174/81/3
f 80/66/2 176/66/2 175/83/2
f 81/33/1 177/33/1 176/66/1
f 82/84/32 178/84/32 177/33/32
f 83/86/31 179/86/31 178/84/31
f 84/85/30 180/85/30 179/86/30
f 85/88/29 181/88/29 180/85/29
f 86/87/28 182/87/28 181/88/28
f 87/89/27 183/89/27 182/87/27
